Coordinates
version=1
nRows=9
nColumns=24
inDegrees=yes

Units are S.I. units (second, meters, Newtons, ...)
Angles are in degrees.

endheader
time	pelvis_tilt	pelvis_list	pelvis_rotation	pelvis_tx	pelvis_ty	pelvis_tz	hip_flexion_r	hip_adduction_r	hip_rotation_r	knee_angle_r	ankle_angle_r	subtalar_angle_r	mtp_angle_r	hip_flexion_l	hip_adduction_l	hip_rotation_l	knee_angle_l	ankle_angle_l	subtalar_angle_l	mtp_angle_l	lumbar_extension	lumbar_bending	lumbar_rotation
      4.78500000	    -12.73541543	      4.57064290	     -5.32480030	      2.47168179	     -0.00184617	     -0.48431507	     34.32795820	     -8.34432321	     -2.25380355	    -52.98395940	     -6.02795922	      6.52670603	     30.26674456	      9.79507941	      9.23616067	     -8.29342066	     -4.67245602	     -3.49199204	      5.92809866	      8.84475650	     10.31771192	     -6.62927619	     -3.36366291
      4.79000000	    -12.73991566	      4.42599057	     -5.15471425	      2.47701878	     -0.00191563	     -0.48480927	     34.65807239	     -8.13947233	     -2.44945879	    -52.01680883	     -5.73705516	      6.19704222	     29.69914978	      9.35456905	      9.18230850	     -8.03439351	     -4.51056328	     -3.29326497	      5.97099580	      8.71569599	     10.28935813	     -6.46272791	     -3.53301580
      4.79500000	    -12.73295187	      4.28562503	     -4.98317847	      2.48233308	     -0.00199466	     -0.48529081	     34.95379822	     -7.94375690	     -2.65540067	    -51.00079154	     -5.45146769	      5.91331005	     29.12016826	      8.90875352	      9.12920761	     -7.77933913	     -4.35791776	     -3.10556464	      6.01600551	      8.59197763	     10.24713898	     -6.30121473	     -3.70200403
      4.80000000	    -12.72130243	      4.15583277	     -4.81590600	      2.48762380	     -0.00209721	     -0.48574166	     35.22691900	     -7.75584277	     -2.86322807	    -49.94194145	     -5.17675140	      5.64872494	     28.50563768	      8.46377122	      9.08119269	     -7.53203255	     -4.21079589	     -2.92683313	      6.06259929	      8.47666109	     10.19902016	     -6.15319978	     -3.86311821
      4.80500000	    -12.78740098	      4.04004651	     -4.70225803	      2.49289218	     -0.00232028	     -0.48613553	     35.57876827	     -7.53725308	     -2.99670576	    -48.82303004	     -4.96309376	      5.42576983	     28.17985024	      8.11845307	      9.02706999	     -7.35843352	     -4.07593022	     -2.76963999	      6.08939164	      8.45186129	     10.24348566	     -5.99037533	     -3.93369531
      4.81000000	    -12.80013906	      3.91082328	     -4.53020213	      2.49814281	     -0.00248045	     -0.48651259	     35.83234334	     -7.34453687	     -3.23609739	    -47.66101899	     -4.77950469	      5.09066180	     27.70086699	      7.71451819	      8.96181400	     -7.11906186	     -3.94972493	     -2.61071360	      6.15543877	      8.41174677	     10.22011045	     -5.85014692	     -4.10406607
      4.81500000	    -12.63651239	      3.79186824	     -4.37354017	      2.50346134	     -0.00249427	     -0.48694414	     35.86984160	     -7.19783962	     -3.50334896	    -46.51338427	     -4.40803202	      5.13623396	     26.34596936	      7.09074254	      8.92908144	     -6.89273332	     -3.78403594	     -2.44374624	      6.22820767	      8.22347082	     10.01133886	     -5.72398892	     -4.27485848
      4.82000000	    -12.70023825	      3.71625131	     -4.19854017	      2.50862330	     -0.00278954	     -0.48724474	     36.16336016	     -7.04751863	     -3.74149538	    -45.29958444	     -4.26825031	      4.81681220	     25.82470222	      6.77190768	      8.90110124	     -6.68939536	     -3.69226065	     -2.31095857	      6.32778844	      8.25838452	     10.03947985	     -5.64435701	     -4.43501948
      4.82500000	    -12.78270851	      3.61901023	     -4.09814721	      2.51385360	     -0.00311797	     -0.48754324	     36.44836859	     -6.84076282	     -3.91940832	    -44.01176179	     -4.18139528	      4.65333605	     25.51187096	      6.46719388	      8.84267660	     -6.54412492	     -3.59431963	     -2.17631532	      6.37560688	      8.28637418	     10.10380917	     -5.50309307	     -4.49823483
